<svg xmlns="http://www.w3.org/2000/svg"
     xmlns:xlink="http://www.w3.org/1999/xlink"
     viewBox="0 0 269.43 260.54"
>
  <style>
    .vane {
      fill: #068e4d;
      stroke: #fff;
      stroke-linecap: round;
      stroke-linejoin: round;
      stroke-width: 2;
    }

    .chair {
      fill: #a67ee5;
      stroke: #fff;
      stroke-width: 2;
      stroke-miterlimit: 10;
      stroke-linecap: round;
    }
  </style>

  <defs>
    <symbol id="vane-group">
      <g>
        <animateTransform attributeName="transform"
                          type="translate"
                          dur="2s"
                          values="0, 0;
                                  0, -2.5;
                                  0, 0;
                                  0, 2.5;
                                  0, 0"
                          calcMode="spline"
                          keySplines="0.29, 0.79, 0.34, 0.85;
                                      0.63, 0.34, 0.69, 0.38;
                                      0.29, 0.79, 0.34, 0.85;
                                      0.63, 0.34, 0.69, 0.38"
        />
        <g transform="translate(-40.77 -69.46)">
          <path class="vane"
                d="M123.23,173.34h9.16a3.29,3.29,0,0,1,3.29,3.3v5.71a3.29,3.29,0,0,1-3.29,3.3H115.57a1.32,1.32,0,0,1-1.32-1.32v-2a9,9,0,0,1,9-9" />
          <path class="vane"
                d="M123.23,207.39h9.16a3.29,3.29,0,0,0,3.29-3.3v-5.71a3.29,3.29,0,0,0-3.29-3.3H115.57a1.32,1.32,0,0,0-1.32,1.32v2a9,9,0,0,0,9,9"/>
        </g>
      </g>
    </symbol>

    <clipPath id="window-clip">
      <path id="window" fill="transparent" stroke="#fff" stroke-width="2" d="M234.52 156.53h-17.13a17.6 17.6 0 01-17.52-17.58V101.1a17.6 17.6 0 0117.52-17.58h17.13a17.6 17.6 0 0117.51 17.58v37.83a17.6 17.6 0 01-17.51 17.6v0z"></path>
    </clipPath>

  </defs>

  <!-- облака -->
  <g id="clouds"
     fill="none"
     stroke="#fff"
     stroke-linecap="round"
     stroke-miterlimit="10"
     stroke-width="2">
    <g id="clouds__one">
      <animateMotion id="cloudmove"
                     dur="2s"
                     values="250 0; 0 0"
                     fill="freeze" />
      <animate dur="2s"
               attributeName="opacity"
               values="0; 1; 1; 0"
               keyTimes="0; 0.2; 0.9; 1"
               fill="freeze" />
      <line x1="28.18" y1="38.34" x2="91.09" y2="38.34">
        <animateMotion dur="2s"
                       values="-15 0; 0 0"
                       fill="freeze" />
      </line>
      <path d="M41.77,97.54H77.06a12.4,12.4,0,1,1,24.8,0h17.93" transform="translate(-40.77 -69.46)" />
    </g>
    <g id="clouds__two" opacity="0">
      <animateMotion begin="cloudmove.end - 0.2s"
                     dur="2s"
                     values="50 0; -200 0"
                     fill="freeze" />
      <animate begin="cloudmove.end - 0.2s"
               dur="1s"
               attributeName="opacity"
               values="0; 1; 1; 0"
               keyTimes="0; 0.2; 0.9; 1"
               fill="freeze" />
      <line x1="218.19" y1="23.72" x2="257.97" y2="23.72">
        <animateMotion begin="cloudmove.end - 0.1s"
                       dur="2s"
                       values="-15 0; 0 0"
                       fill="freeze" />
      </line>
      <path d="M278.75,82.91H251.39a12.4,12.4,0,1,0-24.8,0H208.65" transform="translate(-40.77 -69.46)"/>
      <line x1="246.24" y1="13.45" x2="268.43" y2="13.45" />
    </g>
  </g>

  <!-- дирижабль -->
  <g id="dirigable">
    <animate attributeName="opacity"
             begin="dirigableAnimation.end"
             dur="0.5s"
             fill="freeze"
             values="1; 0" />
    <g id="dirigable__cockpit">
      <animateTransform attributeName="transform"
                        type="translate"
                        repeatCount="indefinite"
                        dur="1s"
                        repeatDur="2s"
                        values="97.5, 150.85" />
      <animateTransform attributeName="transform"
                        type="scale"
                        additive="sum"
                        values="1 1; 1 0.86; 1 1"
                        dur="1s"
                        repeatDur="2s" />
      <animateTransform id="dirigableAnimation"
                        attributeName="transform"
                        type="skewX"
                        additive="sum"
                        calcMode="spline"
                        keySplines="0.29, 0.79, 0.34, 0.85;
                                    0.63, 0.34, 0.69, 0.38;
                                    0.29, 0.79, 0.34, 0.85;
                                    0.63, 0.34, 0.69, 0.38"
                        values="0; 3; 0; -3; 0"
                        dur="2s" />
      <animateTransform attributeName="transform"
                        type="translate"
                        additive="sum"
                        values="-97.5, -150.85"
                        dur="1s"
                        repeatDur="2s" />
      <path d="M175.44,249.28h48.36a13.27,13.27,0,0,0,13-10.65l3.74-18.32H172.36v25.89A3.09,3.09,0,0,0,175.44,249.28Z" transform="translate(-40.77 -69.46)" fill="none" stroke="#fff" stroke-linecap="round" stroke-linejoin="round" stroke-width="2"/>
      <path d="M235.79,241.69h-9.22a8.31,8.31,0,0,1-8.28-8.31V220.31" transform="translate(-40.77 -69.46)" fill="none" stroke="#fff" stroke-linecap="round" stroke-miterlimit="10" stroke-width="2"/>
      <path d="M204.25,231.88h-2.05a3.45,3.45,0,0,0-3.43,3.45v2.92a3.45,3.45,0,0,0,3.43,3.45h2.05a3.45,3.45,0,0,0,3.43-3.45v-2.92A3.44,3.44,0,0,0,204.25,231.88Z" transform="translate(-40.77 -69.46)" fill="none" stroke="#fff" stroke-linecap="round" stroke-linejoin="round" stroke-width="2">
        <set attributeName="opacity"
             begin="dirigableAnimation.end"
             fill="freeze"
             to="0" />
      </path>
      <path d="M185.64,231.88h-2.05a3.45,3.45,0,0,0-3.43,3.45v2.92a3.45,3.45,0,0,0,3.43,3.45h2.05a3.45,3.45,0,0,0,3.43-3.45v-2.92A3.45,3.45,0,0,0,185.64,231.88Z" transform="translate(-40.77 -69.46)" fill="none" stroke="#fff" stroke-linecap="round" stroke-linejoin="round" stroke-width="2"/>
    </g>
    <use xlink:href="#vane-group" transform="translate(84, 121.37) scale(1, -1) translate(-84, -121.37)"></use>
    <g id="dirigable__shell">
      <path fill="#068E4D" stroke-width="2" stroke="#fff" d="M164.23 157.62c43.38 0 74.86-15.55 74.86-37s-31.48-37-74.86-37c-27.94 0-55.36 13.53-73.46 24.87a14.3 14.3 0 000 24.21c18.09 11.33 45.52 24.87 73.46 24.87"></path>
      <path fill="#36E69A" d="M164.22 120.61H91.41c-4.57 0-1.91 0-6.07.36a12.93 12.93 0 016.07-11.43c16.74-10.5 44.58-24.68 72.81-24.68 44.81 0 73.64 16 73.64 35.75v.37c-23.36 0-29.11-.37-73.64-.37z"></path>
      <path fill="#068E4D" d="M91.41 121.48h146.41c-.86 19.34-29.45 34.86-73.6 34.86-28.23 0-56.07-14.19-72.81-24.68a12.88 12.88 0 01-6-10.18h6z"></path>
      <path fill="#25B774">
        <animate attributeName="d"
                 values="M91.41 116.66c16.74-4.27 44.58-10 72.81-10 44.53 0 73.26 6.43 73.61 14.38v.51c-.85 7.86-29.45 14.17-73.6 14.17-28.23 0-56.07-5.76-72.81-10-3.79-1-5.79-2.53-6-4.13v-.51c.13-1.69 2.15-3.36 6.1-4.37;
                         M91.41 116.66C108 110 135.99 101.66 164.22 101.66C208.75 101.66 237.48 113.09 237.83 121.04V121.55C236.98 129.41 208.38 130.72 164.23 130.72C136 130.72 108.16 129.96 91.42 125.72C87.63 124.72 85.63 123.19 85.42 121.59V121.08C85.55 119.39 87.57 117.72 91.52 116.71;
                         M91.41 116.66c16.74-4.27 44.58-10 72.81-10 44.53 0 73.26 6.43 73.61 14.38v.51c-.85 7.86-29.45 14.17-73.6 14.17-28.23 0-56.07-5.76-72.81-10-3.79-1-5.79-2.53-6-4.13v-.51c.13-1.69 2.15-3.36 6.1-4.37;
                         M91.41 116.66C108.15 112.39 135.529 109.899 164.22 110.66C193.5 111.437 237.48 113.09 237.83 121.04V121.55C236.98 129.41 208.38 138.72 164.23 138.72C136 138.72 108.16 129.96 91.42 125.72C87.63 124.72 85.63 123.19 85.42 121.59V121.08C85.55 119.39 87.57 117.72 91.52 116.71;
                         M91.41 116.66c16.74-4.27 44.58-10 72.81-10 44.53 0 73.26 6.43 73.61 14.38v.51c-.85 7.86-29.45 14.17-73.6 14.17-28.23 0-56.07-5.76-72.81-10-3.79-1-5.79-2.53-6-4.13v-.51c.13-1.69 2.15-3.36 6.1-4.37"
                 dur="2s"
                 fill="freeze"
                 calcMode="spline"
                 keySplines="0.29, 0.79, 0.34, 0.85;
                             0.63, 0.34, 0.69, 0.38;
                             0.29, 0.79, 0.34, 0.85;
                             0.63, 0.34, 0.69, 0.38"
        />
      </path>
    </g>
    <use xlink:href="#vane-group"></use>
    <g id="dirigable__airtrace"
       fill="none"
       stroke="#fff"
       stroke-linecap="round"
       stroke-miterlimit="10"
       stroke-width="2" >
      <line class="line" x1="65.48" y1="110.03" x2="43.28" y2="110.03">
          <animate attributeName="x2"
                   dur="0.2s"
                   repeatCount="indefinite"
                   values="43.28; 38.28; 43.28" />
        </line>
      <line x1="65.48" y1="131.77" x2="43.28" y2="131.77">
        <animate attributeName="x2"
                 dur="0.2s"
                 begin="0.1s"
                 repeatCount="indefinite"
                 values="43.28; 38.28; 43.28" />
      </line>
      <line x1="65.48" y1="121.52" x2="28" y2="121.52">
        <animate attributeName="x2"
                 dur="0.2s"
                 begin="0.05s"
                 repeatCount="indefinite"
                 values="28; 23; 28" />
      </line>
    </g>
  </g>

  <!-- облака в окне -->
  <g id="window-clouds" clip-path="url(#window-clip)" opacity="0" stroke="#fff" fill="none" stroke-width="2" stroke-miterlimit="10" stroke-linecap="round">
    <animate attributeName="opacity"
             fill="freeze"
             begin="dirigableAnimation.end"
             dur="0.35s"
             values="0; 1" />
    <g>
      <animateMotion dur="3s"
                     begin="dirigableAnimation.end"
                     repeatCount="indefinite"
                     values="284 0; -52 0" />
      <path d="M42.18 144.34H105.09"></path>
      <path d="M15 134.08H50.29C50.29 130.791 51.5964 127.637 53.9219 125.312C56.2473 122.986 59.4013 121.68 62.69 121.68C65.9787 121.68 69.1327 122.986 71.4581 125.312C73.7836 127.637 75.09 130.791 75.09 134.08H93.02"></path>
    </g>
    <g>
      <animateMotion dur="3s"
                     begin="dirigableAnimation.end"
                     repeatCount="indefinite"
                     values="284 0; -52 0" />
      <path d="M232.19 129.72H271.97"></path>
      <path d="M251.98 119.45H224.62C224.62 116.161 223.314 113.007 220.988 110.682C218.663 108.356 215.509 107.05 212.22 107.05C208.931 107.05 205.777 108.356 203.452 110.682C201.126 113.007 199.82 116.161 199.82 119.45H181.88"></path>
    </g>
  </g>

  <!-- лыжи -->
  <g id="ski" fill="#fff" opacity="0">
    <animate attributeName="opacity"
             values="0; 1"
             dur="0.35s"
             begin="dirigableAnimation.end + 0.4s"
             fill="freeze" />
    <animateMotion dur="0.35s"
                   begin="dirigableAnimation.end + 0.4s"
                   values="-40 0; 0 0"
                   calcMode="spline"
                   keySplines="0.27, 0.49, 0.27, 0.89"
                   fill="freeze" />
    <path d="M51.66 258.89a2.2 2.2 0 01-2-2.36L63.32 63.36c1.1-15.49-4.8-21.92-8.75-24.47a1.35 1.35 0 01.53-2.45c8.42-1.34 27.6-1.34 25.42 28.85L66.95 257.77a2.2 2.2 0 01-2.35 2l-12.94-.88z"></path>
    <path d="M85.02 259.27a2.2 2.2 0 01-2.17-2.23l2.24-193.63c.19-15.53-6.07-21.61-10.16-23.91a1.35 1.35 0 01.39-2.47c8.36-1.9 27.49-3 27.15 27.28l-2.25 192.93a2.2 2.2 0 01-2.22 2.18l-12.98-.15z"></path>
  </g>

  <!-- кресло -->
  <g id="chair" class="chair" opacity="0">
    <animate attributeName="opacity"
             values="0; 1"
             dur="0.35s"
             begin="dirigableAnimation.end + 0.2s"
             fill="freeze" />
    <animateMotion dur="0.35s"
                   begin="dirigableAnimation.end + 0.2s"
                   values="-100 0; 0 0"
                   calcMode="spline"
                   keySplines="0.27, 0.49, 0.27, 0.89"
                   fill="freeze" />
    <path d="M217.02 190.92h-60.74v-14.19h55.09a9.92 9.92 0 019.9 9.93 4.26 4.26 0 01-4.25 4.25"></path>
    <path d="M144.99 259.41h-13.97l-6.31-41.59h13.97l6.31 41.59z"></path>
    <path d="M194.54 259.41h-13.96l-6.3-41.59h13.96l6.3 41.59z"></path>
    <path d="M240.85 203.55h-55.89a5.6 5.6 0 01-5.53-4.77l-10.86-72.24a17.71 17.71 0 00-12.49-31.31H101l-.32 102.87 15.77 23.35 47.19 8.39c1.35.5 2.78.75 4.22.75h73a13.53 13.53 0 100-27.06"></path>
    <path d="M121.94 198.79l-10.86-72.24a17.7 17.7 0 10-28.21-8.36l15.3 101.91a12.36 12.36 0 0012.21 10.54h73a13.53 13.53 0 000-27.05h-55.91a5.62 5.62 0 01-5.53-4.78"></path>
    <path d="M165.78 190.92h-72l-2.13-14.19h68.47a9.92 9.92 0 019.9 9.93 4.26 4.26 0 01-4.25 4.25"></path>
    <path d="M111.08 126.54h57.49"></path>
  </g>

  <!-- растение -->
  <g id="plant" opacity="0">
    <animate attributeName="opacity"
             values="0; 1"
             dur="0.35s"
             begin="dirigableAnimation.end + 0.3s"
             fill="freeze" />
    <animateMotion dur="0.35s"
                   begin="dirigableAnimation.end + 0.3s"
                   values="-50 0; 0 0"
                   calcMode="spline"
                   keySplines="0.27, 0.49, 0.27, 0.89"
                   fill="freeze" />
    <animateTransform attributeName="transform"
                      type="rotate"
                      additive="sum"
                      fill="freeze"
                      begin="dirigableAnimation.end + 0.3s"
                      dur="1s"

                      values="0,  110, 259;
                              5,  110, 259;
                              0,  110, 259;
                              -3, 110, 259;
                              0,  110, 259;
                              1,  110, 259;
                              0,  110, 259" />
    <path fill="#36E69A" d="M38.7 125.1A131 131 0 0154.29 152a255 255 0 01-20.08-23.55 258.96 258.96 0 01-17.07-25.88c8.05 6.63 15.3 14.2 21.56 22.53"></path>
    <path fill="#36E69A" d="M40.46 145.49a127.2 127.2 0 0122.8 20.49A235.86 235.86 0 0114 131.57a119.8 119.8 0 0126.46 13.92"></path>
    <path fill="#36E69A" d="M53.18 136.58c2.77 9.99 6.13 19.8 10.08 29.39a125.63 125.63 0 00-4.5-30.52 135.88 135.88 0 00-12.06-29.44 260.33 260.33 0 006.47 30.57"></path>
    <path fill="#25B774" d="M66.84 144.62c.06 10.26.75 20.5 2.06 30.67a119.94 119.94 0 003.76-30.05c-.06-10.58-1.4-21.1-4-31.36a238.1 238.1 0 00-1.87 30.74"></path>
    <path fill="#25B774" d="M42.6 160.66c9.33 3.78 18.16 8.7 26.29 14.64a225.95 225.95 0 01-28.16-9.2 228.08 228.08 0 01-26.37-12.69c9.7 1.2 19.19 3.66 28.25 7.29"></path>
    <path fill="#25B774" d="M47.58 174.93c9.62 2.55 18.88 6.3 27.56 11.17a210.95 210.95 0 01-28.78-5.6c-9.33-2.5-18.5-5.62-27.42-9.33a114 114 0 0128.65 3.73"></path>
    <path fill="#25B774" d="M78.23 155.89a238 238 0 00-3.1 30.25c4.15-9.1 7.11-18.69 8.82-28.54a127.44 127.44 0 001.42-31.19 213.94 213.94 0 00-7.15 29.48"></path>
    <path fill="#068E4D" d="M58.38 193.1c9.5 2.96 18.6 7.1 27.07 12.34a212.34 212.34 0 01-28.53-6.79 220.86 220.86 0 01-27-10.45c9.66.42 19.22 2.07 28.46 4.9z"></path>
    <path fill="#068E4D" d="M89.79 175.39a236.58 236.58 0 00-4.34 30.1 116.93 116.93 0 0010-28.16 127.42 127.42 0 002.71-31.1 214.42 214.42 0 00-8.36 29.16"></path>
    <path fill="#068E4D" d="M68.42 211.79c9.38 3.35 18.3 7.88 26.54 13.47a213.47 213.47 0 01-28.23-8 221.74 221.74 0 01-26.55-11.57c9.63.82 19.12 2.86 28.24 6.08"></path>
    <path fill="#068E4D" d="M100.52 195.36a236.1 236.1 0 00-5.58 29.9 117.48 117.48 0 0011.15-27.73 127.2 127.2 0 004-31c-3.87 9.37-7.07 19-9.57 28.83"></path>
    <path fill="none" stroke="#36E69A" stroke-linecap="round" stroke-linejoin="round" stroke-width="2" d="M52.14 148.77A529.24 529.24 0 01109 259.1"></path>
  </g>

  <!-- окно в самолете -->
  <g id="plane-window">
    <path fill="none" stroke="#fff" stroke-width="2" opacity="0">
      <set attributeName="opacity"
           begin="dirigableAnimation.end"
           to="1" />
      <animate attributeName="d"
               begin="dirigableAnimation.end"
               dur="0.5s"
               fill="freeze"
               calcMode="spline"
               keySplines="0.27, 0.49, 0.27, 0.89"
               values="M164    172.5  H161.023 C160.221 172.497 159.452 172.242 158.886 171.791 C158.319 171.34 158.001 170.729 158    170.092 V164.908 C158.001 164.271 158.319 163.66  158.886 163.209 C159.452 162.758 160.221 162.503 161.023 162.5 H163.979 C164.781 162.503 165.549 162.758 166.115 163.209 C166.681 163.661 166.999 164.271 167 164.908  V170.089 C167     170.726 166.682 171.338 166.116 171.789 C165.549 172.241 164.781 172.496 163.979 172.5Z;
                       M234.52 156.53 H217.39  C212.74  156.509 208.286 154.648 205.004 151.354 C201.721 148.06 199.875 143.601 199.87 138.95  V101.1   C199.875 96.4495 201.721 91.9901 205.004 88.696  C208.286 85.402  212.74  83.5411 217.39  83.52 H234.52  C239.169 83.5438 243.619 85.4058 246.9   88.6995 C250.181 91.9933 252.025 96.4512 252.03 101.1 V138.93  C252.027 143.581 250.185 148.043 246.904 151.34  C243.623 154.638 239.171 156.504 234.52  156.53Z"
      />
    </path>
  </g>

  <!-- горы и нижняя линия -->
  <g id="foot"
     fill="none"
     stroke="#fff"
     stroke-linecap="round"
     stroke-miterlimit="10"
     stroke-width="2">
    <path d="M249.17 258.42 H204.11 L172.03 227.12 C171.689 226.832 171.257 226.674 170.81 226.674 C170.363 226.674 169.931 226.832 169.59 227.12 L159.39 237.35 C159.077 237.62 158.678 237.769 158.265 237.769 C157.852 237.769 157.453 237.62 157.14 237.35 L138.14 217.18 C137.707 216.813 137.158 216.612 136.59 216.612 C136.022 216.612 135.473 216.813 135.04 217.18 L108.62 242.82 C108.308 243.092 107.909 243.242 107.495 243.242 C107.081 243.242 106.682 243.092 106.37 242.82 L103.74 239.9  C103.425 239.611 103.013 239.451 102.585 239.451 C102.157 239.451 101.745 239.611 101.43 239.9  L83.86 259.54 H40.01">
      <animate attributeName="d"
               dur="1s"
               begin="1.5s"
               fill="freeze"
               values="M249.17 259.54 H204.11 L172.03 227.12 C171.689 226.832 171.257 226.674 170.81 226.674 C170.363 226.674 169.931 226.832 169.59 227.12 L159.39 237.35 C159.077 237.62 158.678 237.769 158.265 237.769 C157.852 237.769 157.453 237.62 157.14 237.35 L138.14 217.18 C137.707 216.813 137.158 216.612 136.59 216.612 C136.022 216.612 135.473 216.813 135.04 217.18 L108.62 242.82 C108.308 243.092 107.909 243.242 107.495 243.242 C107.081 243.242 106.682 243.092 106.37 242.82 L103.74 239.9  C103.425 239.611 103.013 239.451 102.585 239.451 C102.157 239.451 101.745 239.611 101.43 239.9  L83.86 259.54 H40.01;
                       M249.17 259.54 H204.11 L172.03 259.54 C171.689 259.54  171.257 259.54  170.81 259.54  C170.363 259.54  169.931 259.54  169.59 259.54 L159.39 259.54 C159.077 259.54 158.678 259.54  158.265 259.54  C157.852 259.54  157.453 259.54 157.14 259.54 L138.14 259.54 C137.707 259.54  137.158 259.54  136.59 259.54  C136.022 259.54  135.473 259.54  135.04 259.54 L108.62 259.54 C108.308 259.54  107.909 259.54  107.495 259.54  C107.081 259.54  106.682 259.54 106.37  259.54 L103.74 259.54 C103.425 259.54  103.013 259.54  102.585 259.54  C102.157 259.54  101.745 259.54  101.43 259.54 L83.86 259.54 H40.01"
      />
    </path>
  </g>
</svg>
