<svg xmlns="http://www.w3.org/2000/svg" xmlns:xlink="http://www.w3.org/1999/xlink" fill="none" viewBox="5 0 320 276" width="320" height="276">
  <style>
    .stroke {
      stroke: #fff;
      stroke-width: 2;
      stroke-miterlimit: 10;
      stroke-linecap: round;
    }
  </style>

  <defs>
    <path id="move-path" d="M179,111c24.19-9.24,29.8-15.84,29.42-20.44C207.18,75.43,138.73,51.78,96,84c-2.93,2.21-31.66,24.52-29,54,3.54,39.18,59.83,61.15,75.7,67.35,53.65,20.94,94.43,8.79,101.78,27.18,2.89,7.25.78,19.69-21.48,42.47" fill="none" stroke-miterlimit="10"/>
  </defs>

  <g id="clouds">
    <animate attributeName="opacity" dur="0.4s" values="0; 1" />
    <animate attributeName="opacity" dur="0.25s" begin="1.1s" values="1; 0" fill="freeze" />

    <!-- центральное облако -->
    <g id="cloud-1">
      <animateMotion values="120, 0; 0, 0" dur="0.4s" calcMode="spline" keySplines="0.24, 0.49, 0.29, 0.89" />
      <animateMotion values="0, 0; 0, -30" dur="0.2s" begin="1.1s" calcMode="spline" keySplines="0.24, 0.49, 0.29, 0.89" fill="freeze" />

      <path id="cloud-1" fill="#fff" d="M221.64 65h-19.45a35.49 35.49 0 00-68-13.69A26.34 26.34 0 00121.3 48a26.72 26.72 0 00-24.8 17H81.35a10.5 10.5 0 100 21h140.3a10.5 10.5 0 000-21"></path>
    </g>

    <!-- облако слева -->
    <g id="cloud-2" class="stroke">
      <animateMotion values="70, 0; 0, 0" dur="0.4s" calcMode="spline" keySplines="0.24, 0.49, 0.29, 0.89" />
      <animateMotion values="0, 0; 0, -25" dur="0.25s" begin="1.1s" calcMode="spline" keySplines="0.24, 0.49, 0.29, 0.89" fill="freeze" />

      <path d="M51.31 23.72H91.08"></path>
      <path d="M71.09 13.45H43.73C43.73 10.1613 42.4236 7.00733 40.0981 4.68188C37.7727 2.35643 34.6187 1.05 31.33 1.05C28.0413 1.05 24.8873 2.35643 22.5619 4.68188C20.2364 7.00733 18.93 10.1613 18.93 13.45H1"></path>
      <path d="M79.35 13.45H101.55"></path>
    </g>

    <!-- облако справа -->
    <g id="cloud-3" class="stroke">
      <animateMotion values="50, 0; 0, 0" dur="0.4s" calcMode="spline" keySplines="0.24, 0.49, 0.29, 0.89" />
      <animateMotion values="0, 0; 0, -30" dur="0.2s" begin="1.1s" calcMode="spline" keySplines="0.24, 0.49, 0.29, 0.89" fill="freeze" />

      <path d="M258 91.28H297.78"></path>
      <path d="M286.05 81H308.25"></path>
    </g>
  </g>


  <g id="plant-1">
    <g>
      <animateTransform attributeName="transform" type="translate" repeatCount="indefinite" additive="sum" fill="freeze" dur="1.5s" values="251, 195" />
      <animateTransform attributeName="transform" type="rotate"    repeatCount="indefinite" additive="sum" fill="freeze" dur="1.5s" values="0; 5; 0" />
      <animateTransform attributeName="transform" type="translate" repeatCount="indefinite" additive="sum" fill="freeze" dur="1.5s" values="-251, -195" />
      <path fill="#E81A5A" d="M249.34 152.82a2 2 0 013.15 2c-1 7-2.07 20.33 4.85 19.4 4.94-.66-16.65-31.53 19.32-38.16a2 2 0 012.4 1.8 2 2 0 01-.22 1.09c-1.32 2.74-2.83 6.61-2.73 9.9a2 2 0 003.71 1c4.1-6.15 15.1-17.86 36.59-10.7a2 2 0 011.35 1.54c.93 4.8 4.13 23.24-.29 28.72-5.09 6.31-15 4.14-16.18 10.25-1.3 6.91 7.51 4.82 13.42-.22a2 2 0 013.32 1.64c-.25 5.45-2.18 14-11.12 18.69-13.78 7.21-23.48-7-25.19-3.88-2.59 4.66 7.94 8.47 13.78 10.18a2 2 0 01.61 3.59c-10.52 7.74-29.13 10.28-37-5.41-8.3-16.59-12.93-12.49-18.19-20.38-5.71-8.57-4.33-22.54 8.38-31.05h.04zm29.36 32.47c.5 2.73 5.2 3.51 8.35 2.94 3.15-.57 8.47-3.83 8-6.56-.47-2.73-6.62-3.9-9.78-3.33-3.16.57-7.05 4.22-6.55 6.95"></path>
    </g>
    <path stroke="#E81A5A" stroke-miterlimit="10" stroke-width="2" d="M248.87 273.88s-4.91-70.27 5.54-80.72"></path>
  </g>

  <g id="bag-group" transform="translate(-144.1, -27.95) translate(-57.24, -247.13)">
    <animate attributeName="opacity" begin="0.45s" dur="0.25s" values="0; 1" />

    <animateMotion begin="0.45s" dur="1.6s" additive="sum" fill="freeze">
      <mpath xlink:href="#move-path" />
    </animateMotion>

    <animateTransform attributeName="transform" type="translate" begin="0.45s" dur="1.6s" additive="sum" fill="freeze" calcMode="linear" values="201.25, 247.13" />
    <animateTransform attributeName="transform" type="scale"     begin="0.45s" dur="1.6s" additive="sum" fill="freeze" calcMode="linear" values="0.0, 0.0; 0.2 0.2; 0.2, 0.2; 1" keyTimes="0; 0.1; 0.5; 1" />
    <animateTransform attributeName="transform" type="rotate"    begin="0.45s" dur="1.6s" additive="sum" fill="freeze" calcMode="paced"  values="30; 30; -30; 20; 18.29; -6.48; 0" keyTimes="0; 0.15; 0.47; 0.76; 0.89; 0.94; 1" />
    <animateTransform attributeName="transform" type="translate" begin="0.45s" dur="1.6s" additive="sum" fill="freeze" calcMode="linear" values="-201.25, -247.13" />

    <g id="bag">
      <path class="stroke" fill="#A67EE5" d="M237.76 275.09C238.695 275.087 239.592 274.715 240.253 274.053C240.915 273.392 241.287 272.495 241.29 271.56V266.49C241.29 265.554 240.918 264.656 240.256 263.994C239.594 263.332 238.696 262.96 237.76 262.96C236.824 262.96 235.926 263.332 235.264 263.994C234.602 264.656 234.23 265.554 234.23 266.49V271.56C234.235 272.495 234.609 273.389 235.27 274.05C235.931 274.711 236.825 275.085 237.76 275.09"/>
      <path class="stroke" fill="#A67EE5" d="M162.22 275.09C163.155 275.087 164.052 274.715 164.713 274.053C165.375 273.392 165.747 272.495 165.75 271.56V266.49C165.75 265.554 165.378 264.656 164.716 263.994C164.054 263.332 163.156 262.96 162.22 262.96C161.284 262.96 160.386 263.332 159.724 263.994C159.062 264.656 158.69 265.554 158.69 266.49V271.56C158.693 272.495 159.065 273.392 159.727 274.053C160.388 274.715 161.285 275.087 162.22 275.09"/>
      <path d="M156.79 266.5H231.29C234.298 266.492 237.18 265.294 239.307 263.167C241.434 261.04 242.632 258.158 242.64 255.15V189.07C242.632 186.062 241.434 183.18 239.307 181.053C237.18 178.926 234.298 177.728 231.29 177.72H156.79C153.782 177.728 150.9 178.926 148.773 181.053C146.646 183.18 145.448 186.062 145.44 189.07V255.15C145.448 258.158 146.646 261.04 148.773 263.167C150.9 265.294 153.782 266.492 156.79 266.5" fill="#A67EE5"/>
      <path class="stroke" d="M231.29 177.73H156.79C150.522 177.73 145.44 182.812 145.44 189.08V255.16C145.44 261.428 150.522 266.51 156.79 266.51H231.29C237.558 266.51 242.64 261.428 242.64 255.16V189.08C242.64 182.812 237.558 177.73 231.29 177.73Z"/>
      <path class="stroke" fill="#A67EE5" d="M185.13 165.36H217.53C218.611 165.363 219.648 165.793 220.412 166.558C221.177 167.322 221.607 168.359 221.61 169.44V185.44C221.61 185.756 221.485 186.058 221.261 186.281C221.038 186.505 220.736 186.63 220.42 186.63H217.72C217.404 186.63 217.102 186.505 216.879 186.281C216.655 186.058 216.53 185.756 216.53 185.44V171.07C216.53 170.733 216.396 170.41 216.158 170.172C215.92 169.934 215.597 169.8 215.26 169.8H187.4C187.063 169.8 186.74 169.934 186.502 170.172C186.264 170.41 186.13 170.733 186.13 171.07V185.45C186.13 185.766 186.005 186.068 185.781 186.291C185.558 186.515 185.256 186.64 184.94 186.64H182.24C181.924 186.64 181.622 186.515 181.399 186.291C181.175 186.068 181.05 185.766 181.05 185.45V169.45C181.055 168.368 181.488 167.332 182.254 166.567C183.021 165.803 184.058 165.373 185.14 165.37"/>
      <path class="stroke" fill="#A67EE5" d="M171.21 266.5H245.71C248.718 266.492 251.6 265.294 253.727 263.167C255.854 261.04 257.052 258.158 257.06 255.15V189.07C257.052 186.062 255.854 183.18 253.727 181.053C251.6 178.926 248.718 177.728 245.71 177.72H171.21C168.204 177.731 165.324 178.93 163.2 181.057C161.075 183.183 159.878 186.064 159.87 189.07V255.15C159.881 258.157 161.08 261.038 163.206 263.164C165.332 265.29 168.213 266.489 171.22 266.5"/>
      <path class="stroke" d="M240.1 198.64H176.84"/>
      <path class="stroke" d="M240.1 222.12H176.84"/>
      <path class="stroke" d="M240.1 245.59H176.84"/>
      <path class="stroke" fill="#A67EE5" d="M153.99 199.89H154.66V244.35H153.99C153.059 244.347 152.167 243.977 151.507 243.32C150.848 242.662 150.475 241.771 150.47 240.84V203.41C150.47 202.948 150.561 202.49 150.738 202.063C150.915 201.636 151.174 201.248 151.501 200.921C151.828 200.594 152.216 200.335 152.643 200.158C153.07 199.981 153.528 199.89 153.99 199.89"/>
    </g>
    <g id="parachute">
      <path class="stroke" d="M201.34 165.08L145.75 85.25" stroke="white"/>
      <path class="stroke" d="M201.34 165.08L182.8 85.25" stroke="white"/>
      <path class="stroke" d="M219.86 85.25L201.34 165.08" stroke="white"/>
      <path class="stroke" d="M256.92 85.25L201.34 165.08" stroke="white"/>
      <path d="M201.33 29.65C216.06 29.6606 230.184 35.5183 240.598 45.9361C251.012 56.3539 256.865 70.4797 256.87 85.21C256.87 78.45 248.57 72.96 238.34 72.96C228.11 72.96 220.03 78.31 219.82 84.96C219.82 85.04 219.82 85.13 219.82 85.22C219.82 78.46 211.52 72.97 201.29 72.97C191.06 72.97 182.75 78.46 182.75 85.22C182.75 85.13 182.75 85.05 182.75 84.96C182.53 78.32 174.33 72.96 164.23 72.96C154.13 72.96 145.71 78.45 145.71 85.21C145.709 77.9094 147.146 70.6802 149.939 63.9351C152.732 57.19 156.827 51.0613 161.989 45.899C167.151 40.7367 173.28 36.6421 180.025 33.8489C186.77 31.0557 193.999 29.6187 201.3 29.62L201.33 29.65ZM201.3 27.96C186.128 27.9865 171.586 34.0279 160.862 44.7598C150.137 55.4917 144.106 70.0381 144.09 85.21C144.09 85.428 144.133 85.6439 144.216 85.8453C144.3 86.0467 144.422 86.2297 144.576 86.3838C144.73 86.5379 144.913 86.6602 145.115 86.7436C145.316 86.8271 145.532 86.87 145.75 86.87C145.968 86.87 146.184 86.8271 146.385 86.7436C146.587 86.6602 146.77 86.5379 146.924 86.3838C147.078 86.2297 147.2 86.0467 147.284 85.8453C147.367 85.6439 147.41 85.428 147.41 85.21C147.41 79.37 154.98 74.62 164.28 74.62C173.39 74.62 180.96 79.28 181.14 85V85.21C181.14 85.6503 181.315 86.0725 181.626 86.3838C181.938 86.6951 182.36 86.87 182.8 86.87C183.24 86.87 183.662 86.6951 183.974 86.3838C184.285 86.0725 184.46 85.6503 184.46 85.21C184.46 79.37 192.03 74.62 201.33 74.62C210.63 74.62 218.2 79.37 218.2 85.21C218.2 85.6503 218.375 86.0725 218.686 86.3838C218.998 86.6951 219.42 86.87 219.86 86.87C220.3 86.87 220.722 86.6951 221.034 86.3838C221.345 86.0725 221.52 85.6503 221.52 85.21V85C221.7 79.27 229.26 74.61 238.38 74.61C247.68 74.61 255.25 79.36 255.25 85.2C255.25 85.6403 255.425 86.0625 255.736 86.3738C256.048 86.6851 256.47 86.86 256.91 86.86C257.35 86.86 257.772 86.6851 258.084 86.3738C258.395 86.0625 258.57 85.6403 258.57 85.2C258.557 70.0239 252.524 55.4728 241.794 44.7398C231.065 34.0068 216.516 27.9685 201.34 27.95" fill="#fff"/>
      <path d="M201.33 29.65C211.25 29.65 219.33 50.55 219.87 84.98C220.08 78.33 228.28 72.98 238.39 72.98C248.5 72.98 256.87 78.48 256.87 85.21C256.87 70.4666 251.013 56.3271 240.588 45.9019C230.163 35.4768 216.023 29.62 201.28 29.62" fill="#E81A5A"/>
      <path d="M201.32 29.65C186.583 29.65 172.449 35.503 162.026 45.9219C151.603 56.3409 145.745 70.4727 145.74 85.21C145.74 78.45 154.04 72.96 164.26 72.96C174.48 72.96 182.56 78.31 182.78 84.96C183.3 50.53 191.39 29.64 201.31 29.64" fill="#FE6183"/>
      <path d="M201.33 29.65C191.4 29.65 183.33 50.55 182.79 84.97C182.79 85.06 182.79 85.14 182.79 85.23C182.79 78.47 191.09 72.98 201.32 72.98C211.55 72.98 219.87 78.48 219.87 85.21C219.87 85.12 219.87 85.04 219.87 84.95C219.36 50.52 211.27 29.62 201.35 29.62" fill="#F7396B"/>
    </g>
  </g>

  <g id="plant-2">
    <animateTransform attributeName="transform" type="translate" repeatCount="indefinite" additive="sum" fill="freeze" dur="2s" values="231, 273.88" />
    <animateTransform attributeName="transform"
                      type="rotate"
                      repeatCount="indefinite"
                      additive="sum"
                      fill="freeze"
                      dur="2s"
                      values="0; 10; 0; -6; 0; 3; 0"
    />
    <animateTransform attributeName="transform" type="translate" repeatCount="indefinite" additive="sum" fill="freeze" dur="2s" values="-231, -273.88" />

    <path fill="#FE6183" d="M308.79 229.4a2.14 2.14 0 01.55 2.17c-1.06 3.43-4.58 12.85-12.1 16.34-5.13 2.38-8.33-2.7-10.92.77s2.1 5 6.92 4.31a2.16 2.16 0 012.14 3.34 14.34 14.34 0 01-11.73 6.67c-10.84.27-12.55-11.58-14.57-10.19-2.72 1.89 1.27 6.55 4.39 9.57a2.17 2.17 0 01-.17 3.26c-.32.26-.72.41-1.13.45-8.76.84-19.72-3.51-19.8-15-.08-12.94-4.25-11.8-5.11-18.35-.91-6.88 3.88-14.88 13.74-16.69a2.16 2.16 0 012.31 3.11c-2.41 4.73-6 12.6-2.82 12.56 3.46 0-1.58-22.58 28.43-15.26a2.16 2.16 0 011.09 3.54l-.1.11a2.16 2.16 0 002.41 3.45c3.66-1.52 9.16-1.27 16.47 5.84"></path>
    <path stroke="#FE6183" stroke-miterlimit="10" stroke-width="2" d="M231 273.88s3.48-30.11 21.7-30.11"></path>
  </g>

  <!-- подножие -->
  <line id="foot" class="stroke" x1="27" y1="275" x2="305" y2="275">
    <animate attributeName="x2" values="27; 305" dur="0.2s" fill="freeze" />
    <animate attributeName="x1" values="27; 133" dur="0.3s" begin="0.2" fill="freeze" />
  </line>
</svg>
