<svg xmlns="http://www.w3.org/2000/svg" width="280" height="280" viewBox="20 0 280 280" fill="none">
  <style>
    .stroke {
      stroke: white;
      stroke-width: 2;
      stroke-miterlimit: 10;
      stroke-linecap: round;
    }
  </style>

  <g id="bag-top-closed">
    <animate id="open_bag" attributeName="opacity" from="1" to="0" begin="0.53s" dur="0.01s" calcMode="discrete" fill="freeze" />

    <path d="M200.77 207.011H57.57C54.4986 207.024 51.5573 208.253 49.3893 210.428C47.2212 212.604 46.0026 215.549 46 218.621V238.371H212.33V218.611C212.327 215.541 211.11 212.597 208.944 210.422C206.778 208.246 203.84 207.016 200.77 207.001" fill="#A67EE5" class="stroke" />
    <path d="M242 207.011H94.12C91.0014 206.979 87.9967 208.181 85.7617 210.356C83.5266 212.531 82.2427 215.502 82.19 218.621V238.371H253.89V218.611C253.837 215.492 252.553 212.521 250.318 210.346C248.083 208.171 245.079 206.968 241.96 207.001" fill="#A67EE5" class="stroke" />
    <path d="M253.63 228.361C254.687 228.365 255.721 228.055 256.602 227.47C257.483 226.886 258.171 226.053 258.578 225.078C258.985 224.103 259.094 223.028 258.89 221.991C258.686 220.954 258.179 220.001 257.433 219.252C256.687 218.503 255.736 217.992 254.699 217.785C253.663 217.577 252.588 217.682 251.611 218.085C250.634 218.489 249.799 219.173 249.211 220.052C248.624 220.93 248.31 221.964 248.31 223.021C248.307 223.721 248.443 224.415 248.709 225.063C248.975 225.71 249.367 226.299 249.861 226.795C250.355 227.292 250.943 227.685 251.59 227.954C252.236 228.222 252.93 228.361 253.63 228.361Z" fill="#A67EE5" class="stroke"/>
    <path d="M252.51 218.611V228.361H241.78C241.029 228.359 240.285 228.21 239.592 227.921C238.898 227.633 238.269 227.21 237.738 226.678C237.208 226.146 236.788 225.515 236.502 224.82C236.215 224.126 236.069 223.382 236.07 222.631V207.011H240.95C244.021 207.024 246.961 208.253 249.127 210.429C251.294 212.605 252.51 215.55 252.51 218.621" fill="#A67EE5" class="stroke" />
  </g>

  <g opacity="0">
    <set attributeName="opacity" from="0" to="1" begin="open_bag.end" fill="freeze" />

    <g id="bag-top">
      <path d="M229.298 182.3C230.432 182.3 231.541 181.966 232.484 181.341C233.427 180.716 234.162 179.827 234.596 178.787C235.03 177.748 235.143 176.604 234.922 175.5C234.701 174.396 234.155 173.382 233.353 172.587C232.551 171.791 231.529 171.249 230.417 171.029C229.305 170.81 228.152 170.922 227.104 171.353C226.056 171.784 225.161 172.513 224.531 173.449C223.901 174.385 223.564 175.485 223.564 176.61C223.564 178.119 224.169 179.566 225.244 180.633C226.319 181.701 227.778 182.3 229.298 182.3Z" fill="#A67EE5"/>
      <path d="M229.298 182.3C232.465 182.3 235.032 179.753 235.032 176.61C235.032 173.468 232.465 170.92 229.298 170.92C226.132 170.92 223.564 173.468 223.564 176.61C223.564 179.753 226.132 182.3 229.298 182.3Z" stroke="white" stroke-width="2" stroke-miterlimit="10"/>
      <path id="Vector_3" d="M215.563 160.67H41.1192C37.9294 160.67 34.8688 161.92 32.6039 164.149C30.339 166.378 29.0533 169.405 29.0267 172.57V226.19C29.0267 229.638 30.4069 232.944 32.8636 235.382C35.3204 237.82 38.6525 239.19 42.1269 239.19H227.545V172.57C227.518 169.415 226.241 166.398 223.989 164.17C221.737 161.943 218.692 160.686 215.513 160.67" fill="#A67EE5"/>
      <path d="M215.563 160.67H41.1192C37.9294 160.67 34.8688 161.92 32.6039 164.149C30.339 166.378 29.0533 169.405 29.0267 172.57V226.19C29.0267 229.638 30.4069 232.944 32.8636 235.382C35.3204 237.82 38.6525 239.19 42.1269 239.19H227.545V172.57C227.519 169.424 226.248 166.414 224.007 164.188C221.766 161.962 218.734 160.699 215.563 160.67V160.67Z" stroke="white" stroke-width="2" stroke-miterlimit="10"/>
      <path d="M44.1927 239.19V175.68C44.1927 171.702 45.7852 167.886 48.6199 165.073C51.4546 162.26 55.2994 160.68 59.3083 160.68H59.8121" stroke="white" stroke-width="2"/>
    </g>

    <g id="flowers">
      <animateTransform attributeName="transform" begin="open_bag.end" type="translate" fill="freeze" additive="sum" dur="1s" values="153,238" />
      <animateTransform attributeName="transform" begin="open_bag.end" type="rotate" fill="freeze" additive="sum" dur="1s" values="60; 0; -5; 0; 3; 0;" />
      <animateTransform attributeName="transform" begin="open_bag.end" type="translate" fill="freeze" additive="sum" dur="1s" values="-153,-238" />

      <g id="plant-4">
        <path d="M155.534 227.99C155.534 227.99 163.898 153.4 195.55 137.99" stroke="white" stroke-width="2" stroke-linecap="round" stroke-linejoin="round"/>
        <path d="M193.041 137.31L202.382 112.82C205.492 113.193 208.487 114.215 211.17 115.82C212.829 114.701 214.854 114.248 216.837 114.552C218.82 114.856 220.613 115.894 221.855 117.458C223.097 119.021 223.695 120.993 223.53 122.978C223.365 124.962 222.448 126.81 220.965 128.15C221.899 131.116 222.195 134.244 221.831 137.33L195.631 140.63C195.209 140.683 194.781 140.626 194.388 140.467C193.994 140.307 193.649 140.049 193.386 139.718C193.122 139.387 192.949 138.995 192.884 138.578C192.818 138.161 192.862 137.735 193.011 137.34" fill="#3B7BF2"/>
      </g>
      <g id="plant-3">
        <path d="M153.025 237.82C153.025 237.82 159.968 193.14 191.267 181.29" stroke="white" stroke-width="2" stroke-linecap="round" stroke-linejoin="round"/>
        <path d="M185.886 182.19L194.956 165.72C197.196 166.265 199.298 167.263 201.133 168.65C202.386 168.048 203.812 167.9 205.164 168.23C205.901 168.396 206.598 168.706 207.214 169.141C207.83 169.576 208.353 170.128 208.752 170.765C209.151 171.402 209.419 172.112 209.54 172.853C209.661 173.593 209.633 174.35 209.457 175.08C209.115 176.402 208.293 177.552 207.149 178.31C207.567 180.492 207.495 182.739 206.937 184.89L187.448 184.78C187.139 184.787 186.833 184.715 186.561 184.569C186.289 184.423 186.061 184.209 185.898 183.948C185.735 183.687 185.643 183.389 185.632 183.082C185.622 182.776 185.692 182.471 185.836 182.2" fill="#3B7BF2"/>
      </g>
    </g>

    <g id="plants">
      <g id="plant-2">
        <animateTransform attributeName="transform" type="translate" fill="freeze" additive="sum" repeatCount="indefinite" begin="open_bag.end" dur="1s" values="155.56, 238.35" />
        <animateTransform attributeName="transform" type="rotate" fill="freeze" additive="sum" begin="open_bag.end" dur="2s" values="60; 0; -10; 0; 5; 0; -3; 0; 1; 0" />
        <animateTransform attributeName="transform" type="translate" fill="freeze" additive="sum" repeatCount="indefinite" begin="open_bag.end" dur="1s" values="-155.56, -238.35" />

        <path d="M116.274 154.35C140.56 186.8 152.36 238.35 152.36 238.35" stroke="#3B7BF2" stroke-width="2" stroke-linecap="round" stroke-linejoin="round"/>
        <path d="M100.11 146.41C106.701 153.92 117.403 155.41 117.403 155.41C117.403 155.41 117.403 144.69 110.822 137.19C104.242 129.69 93.5199 128.19 93.5199 128.19C93.5199 128.19 93.5199 138.91 100.11 146.41Z" fill="#76ABFF"/>
        <path d="M127.762 156.73C125.051 166.31 129.686 176 129.686 176C129.686 176 138.756 170.14 141.446 160.55C144.137 150.96 139.522 141.28 139.522 141.28C139.522 141.28 130.452 147.14 127.762 156.73Z" fill="#3B7BF2"/>
        <path d="M110.278 177.9C119.942 180.6 129.686 175.99 129.686 175.99C129.686 175.99 123.781 166.99 114.117 164.32C104.454 161.65 94.709 166.19 94.709 166.19C94.709 166.19 100.624 175.19 110.278 177.86" fill="#3B7BF2"/>
        <path d="M140.791 182.71C137.355 192.07 141.265 202.06 141.265 202.06C141.265 202.06 150.727 196.88 154.154 187.53C157.58 178.18 153.68 168.19 153.68 168.19C153.68 168.19 144.218 173.37 140.791 182.72" fill="#1553B7"/>
        <path d="M121.766 202.54C131.198 205.94 141.265 202.07 141.265 202.07C141.265 202.07 136.045 192.68 126.613 189.28C117.181 185.88 107.114 189.75 107.114 189.75C107.114 189.75 112.334 199.14 121.766 202.54Z" fill="#1553B7"/>
      </g>
      <g id="plant-1">
        <animateTransform attributeName="transform" type="translate" fill="freeze" additive="sum" repeatCount="indefinite" begin="open_bag.end" dur="1s" values="155.56, 238.35" />
        <animateTransform attributeName="transform" type="rotate" fill="freeze" additive="sum" begin="open_bag.end" dur="2s" values="60; 0; -5; 0; 4; 0; -3; 0; 2; 0; 1; 0" />
        <animateTransform attributeName="transform" type="translate" fill="freeze" additive="sum" repeatCount="indefinite" begin="open_bag.end" dur="1s" values="-155.56, -238.35" />

        <path d="M158.618 214.96C160.935 224.06 156.33 233.08 156.33 233.08C156.33 233.08 147.946 227.34 145.618 218.23C143.291 209.12 147.906 200.11 147.906 200.11C147.906 200.11 156.29 205.86 158.618 214.96Z" fill="#3B7BF2"/>
        <path d="M174.58 235.35C165.4 237.66 156.32 233.08 156.32 233.08C156.32 233.08 162.104 224.76 171.285 222.45C180.465 220.14 189.544 224.72 189.544 224.72C189.544 224.72 183.75 233.04 174.58 235.35Z" fill="#3B7BF2"/>
        <path d="M163.424 221.86C159.587 227.157 156.115 232.706 153.035 238.47" stroke="#3B7BF2" stroke-width="2" stroke-linecap="round" stroke-linejoin="round"/>
        <path d="M178.671 214.38C172.454 221.46 162.356 222.82 162.356 222.82C162.356 222.82 162.356 212.71 168.564 205.64C174.771 198.57 184.879 197.19 184.879 197.19C184.879 197.19 184.879 207.3 178.671 214.38Z" fill="#76ABFF"/>
      </g>
    </g>

    <g id="baloon">
      <animateTransform attributeName="transform" type="translate" fill="freeze" additive="sum" begin="open_bag.end" dur="2.5s" values="0,230; 0,0; 0,10; 0,0; 0,5; 0,0; 0,3; 0,0" />

      <animateTransform attributeName="transform" type="translate" fill="freeze" additive="sum" begin="open_bag.end" dur="2.5s" values="82,239" />
      <animateTransform attributeName="transform" type="rotate" fill="freeze" additive="sum" begin="open_bag.end" dur="2.5s" values="10; 0; -5; 0; 3.5; 0; -1.5; 0; 1; 0" />
      <animateTransform attributeName="transform" type="translate" fill="freeze" additive="sum" begin="open_bag.end" dur="2.5" values="-82,-239" />


      <g id="baloon__body">
        <animateTransform attributeName="transform" type="translate" fill="freeze" additive="sum" begin="open_bag.end" dur="2.5s" values="82,113" />
        <animateTransform attributeName="transform" type="rotate" fill="freeze" additive="sum" begin="open_bag.end" dur="2.5s" values="60; 0; -10; 0; 5; 0; -5; 0; 2; 0" />
        <animateTransform attributeName="transform" type="translate" fill="freeze" additive="sum" begin="open_bag.end" dur="2.5s" values="-82,-113" />

        <path d="M80.8127 112.06L78.6058 115.85C78.4894 116.054 78.429 116.285 78.4307 116.52C78.4324 116.754 78.4961 116.984 78.6155 117.187C78.7348 117.389 78.9057 117.557 79.1109 117.673C79.3161 117.79 79.5485 117.851 79.7849 117.85H84.1885C84.4241 117.849 84.6552 117.787 84.859 117.67C85.0628 117.552 85.2322 117.384 85.3504 117.182C85.4686 116.98 85.5314 116.751 85.5326 116.517C85.5339 116.283 85.4735 116.053 85.3575 115.85L83.1607 112.06C83.0407 111.857 82.8693 111.688 82.6633 111.571C82.4574 111.454 82.2241 111.392 81.9867 111.392C81.7493 111.392 81.516 111.454 81.3101 111.571C81.1041 111.688 80.9327 111.857 80.8127 112.06Z" fill="white"/>
        <path d="M81.9817 29.61C90.772 29.6126 99.2016 33.0784 105.418 39.2456C111.635 45.4128 115.13 53.7769 115.135 62.5C115.135 80.67 99.9289 111.39 81.629 111.39C63.329 111.39 48.8281 80.66 48.8281 62.5C48.8335 53.7769 52.3284 45.4128 58.5451 39.2456C64.7617 33.0784 73.1914 29.6126 81.9817 29.61ZM81.9817 28C72.7644 28.0106 63.9278 31.6488 57.4103 38.1165C50.8927 44.5842 47.2265 53.3533 47.2158 62.5C47.2158 72.01 51.0451 84.6 56.9704 94.57C64.0243 106.45 72.7712 112.99 81.6189 112.99C90.4665 112.99 99.3545 106.45 106.62 94.59C112.767 84.59 116.748 71.95 116.748 62.5C116.737 53.3533 113.071 44.5842 106.553 38.1165C100.036 31.6488 91.1989 28.0106 81.9817 28Z" fill="white"/>
        <path d="M70.2116 62.58C70.2116 44.42 75.482 29.69 81.9817 29.69C73.1914 29.6926 64.7617 33.1584 58.5451 39.3256C52.3284 45.4928 48.8335 53.8569 48.8281 62.58C48.8281 80.75 63.3189 111.47 81.629 111.47H81.8003C75.3207 111.28 70.2116 80.7 70.2116 62.58Z" fill="#76ABFF"/>
        <path d="M115.135 62.58C115.13 53.8569 111.635 45.4928 105.418 39.3256C99.2016 33.1584 90.772 29.6926 81.9817 29.69C88.4814 29.69 93.7517 44.42 93.7517 62.58C93.7517 80.74 88.4209 111.06 81.9817 111.45C100.12 111.06 115.135 80.63 115.135 62.58Z" fill="#1553B7"/>
        <path d="M93.7517 62.58C93.7517 44.42 88.4814 29.69 81.9817 29.69C75.4819 29.69 70.2116 44.42 70.2116 62.58C70.2116 80.74 75.3207 111.27 81.8003 111.47H81.9817C88.4209 111.07 93.7517 80.64 93.7517 62.59" fill="#3B7BF2"/>
        <path d="M74.7262 55.55C73.5901 55.55 72.4796 55.8843 71.535 56.5106C70.5904 57.137 69.8542 58.0272 69.4195 59.0687C68.9847 60.1103 68.871 61.2563 69.0926 62.362C69.3142 63.4677 69.8613 64.4834 70.6646 65.2805C71.4679 66.0777 72.4914 66.6205 73.6056 66.8405C74.7198 67.0604 75.8747 66.9475 76.9243 66.5161C77.9738 66.0847 78.8709 65.3541 79.5021 64.4168C80.1332 63.4794 80.4701 62.3774 80.4701 61.25C80.5156 60.4897 80.3982 59.7284 80.1256 59.0164C79.8531 58.3044 79.4315 57.6578 78.8888 57.1192C78.3461 56.5806 77.6945 56.1623 76.977 55.8918C76.2595 55.6214 75.4923 55.5049 74.7262 55.55ZM74.7262 63.55C72.8518 63.55 71.6426 62.62 71.6426 61.26C71.6426 59.9 72.8619 58.97 74.7262 58.97C76.5904 58.97 77.8198 59.9 77.8198 61.26C77.8198 62.62 76.5602 63.55 74.7262 63.55Z" fill="white"/>
        <path d="M89.0356 55.55C89.3638 55.5498 89.6857 55.6389 89.9663 55.8076C90.247 55.9764 90.4756 56.2183 90.6273 56.507C90.7791 56.7958 90.8481 57.1203 90.8268 57.4452C90.8056 57.7702 90.6949 58.0831 90.5069 58.35L77.0741 77.69C76.7847 78.0217 76.3826 78.2363 75.9442 78.2931C75.5058 78.3499 75.0616 78.2449 74.696 77.9982C74.3305 77.7514 74.069 77.38 73.9612 76.9545C73.8534 76.5289 73.9069 76.079 74.1115 75.69L87.5543 56.35C87.719 56.1113 87.9401 55.9163 88.1984 55.7821C88.4566 55.6478 88.7441 55.5784 89.0356 55.58" fill="white"/>
        <path d="M90.5169 67.07C89.3809 67.07 88.2704 67.4043 87.3258 68.0306C86.3812 68.6569 85.645 69.5472 85.2102 70.5887C84.7755 71.6302 84.6617 72.7763 84.8834 73.882C85.105 74.9877 85.6521 76.0034 86.4554 76.8005C87.2587 77.5977 88.2821 78.1405 89.3963 78.3605C90.5106 78.5804 91.6655 78.4675 92.715 78.0361C93.7646 77.6047 94.6617 76.8741 95.2928 75.9367C95.924 74.9994 96.2609 73.8974 96.2609 72.77C96.3047 72.0101 96.1862 71.2495 95.9131 70.5382C95.6399 69.827 95.2183 69.181 94.676 68.6428C94.1336 68.1045 93.4826 67.6862 92.7659 67.4151C92.0491 67.1441 91.2827 67.0265 90.5169 67.07ZM90.5169 75.07C88.6426 75.07 87.4334 74.14 87.4334 72.78C87.4334 71.42 88.6527 70.49 90.5169 70.49C92.3812 70.49 93.6106 71.39 93.6106 72.78C93.6106 74.17 92.3913 75.07 90.5169 75.07Z" fill="white"/>
      </g>
      <g id="ballon__thread">
        <path d="M81.891 116.9V239.21" class="stroke" />
      </g>
    </g>

    <g id="bird" fill="#fff">
      <animateTransform attributeName="transform" type="translate" begin="open_bag.end" dur="0.5s" fill="freeze" values="-40, 60; 0,0" calcMode="spline" keySplines="0.28, 0.12, 0.25, 1" />

      <animateTransform attributeName="transform" type="translate" begin="open_bag.end" values="253, 138" dur="0.35s" repeatCount="indefinite" additive="sum" />
      <animateTransform attributeName="transform" type="rotate" begin="open_bag.end" values="0; -15; -15; 0; 0" keyTimes="0; 0.1; 0.5; 0.6; 1" dur="2s" repeatCount="indefinite" additive="sum" />
      <animateTransform attributeName="transform" type="translate" begin="open_bag.end" values="-253, -138" dur="0.35s" repeatCount="indefinite" additive="sum" />

      <animateTransform attributeName="transform" type="translate" begin="open_bag.end" values="0,0; -10,10; 0,0" keyTimes="0; 0.5; 1" dur="2s" repeatCount="indefinite" additive="sum" />

      <path id="bird__wing" d="M254.763 133.99C254.755 132.877 255.131 131.795 255.827 130.922C256.523 130.049 257.499 129.438 258.592 129.19L279.825 123.79C271.985 138.63 260.497 138.86 259.671 138.86C258.37 138.847 257.127 138.325 256.212 137.407C255.296 136.49 254.783 135.251 254.783 133.96">
        <animateTransform attributeName="transform" type="translate" values="0, 0; -3, 25" dur="0.12s" repeatCount="indefinite" calcMode="discrete" additive="sum" />
        <animateTransform attributeName="transform" type="rotate" values="0, 0, 0; -120, 255, 124" dur="0.12s" repeatCount="indefinite" calcMode="discrete" additive="sum" />
      </path>
      <path id="bird__body" d="M237.672 120.05H248.515C248.872 119.177 249.489 118.432 250.282 117.914C251.076 117.396 252.01 117.129 252.959 117.15C253.648 117.113 254.334 117.256 254.95 117.565C255.565 117.874 256.088 118.338 256.466 118.91C257.02 119.721 257.483 120.589 257.847 121.5C258.481 123.07 261.877 137.3 263.782 140.66C264.89 142.66 268.206 147.82 268.206 147.82C268.41 148.169 268.518 148.566 268.518 148.97V158.19C268.518 158.19 265.384 157.11 265.384 154.28V147.75C263.46 148.02 259.338 146.1 256.99 144.87C254.078 143.49 251.792 141.079 250.581 138.11C249.36 135.184 249.32 131.904 250.47 128.95C250.942 128.047 251.213 127.055 251.266 126.04C251.206 124.9 249.866 123.32 249.069 121.99L237.672 120.05Z"/>
    </g>
  </g>

  <g id="bag-bottom">
    <path d="M255.861 268.81C257.021 268.931 258.19 268.701 259.215 268.149C260.239 267.598 261.071 266.751 261.601 265.72C262.131 264.69 262.333 263.524 262.181 262.377C262.029 261.23 261.531 260.155 260.751 259.296C259.971 258.436 258.947 257.83 257.813 257.56C256.68 257.29 255.49 257.367 254.402 257.781C253.314 258.195 252.377 258.927 251.717 259.88C251.056 260.834 250.702 261.963 250.702 263.12C250.631 264.552 251.133 265.955 252.1 267.021C253.066 268.087 254.419 268.73 255.861 268.81Z" fill="#A67EE5" class="stroke" />
    <path d="M205.406 279.05H56.265C53.1117 279.077 50.0758 277.865 47.8197 275.678C45.5637 273.492 44.2707 270.509 44.2229 267.38V239.19H217.438V267.36C217.392 270.488 216.102 273.471 213.847 275.658C211.593 277.844 208.558 279.057 205.406 279.03" fill="#A67EE5" class="stroke"/>
    <path d="M242.187 279.05H94.054C90.9115 279.066 87.8901 277.848 85.6492 275.662C83.4083 273.475 82.1297 270.498 82.0925 267.38V239.19H254.138V267.36C254.106 270.478 252.831 273.457 250.591 275.644C248.351 277.831 245.329 279.049 242.187 279.03" fill="#A67EE5" class="stroke"/>
    <path d="M190.068 264.26H155.292C154.156 264.282 153.058 263.856 152.236 263.077C151.415 262.297 150.938 261.227 150.909 260.1V248.4C150.911 248.236 150.947 248.075 151.013 247.925C151.078 247.775 151.174 247.639 151.293 247.525C151.412 247.412 151.552 247.323 151.706 247.264C151.86 247.204 152.024 247.176 152.189 247.18H155.091C155.423 247.175 155.744 247.3 155.984 247.528C156.224 247.757 156.363 248.07 156.371 248.4V258.4C156.381 258.749 156.53 259.08 156.784 259.322C157.039 259.563 157.379 259.695 157.731 259.69H187.67C188.022 259.695 188.362 259.563 188.617 259.322C188.871 259.08 189.02 258.749 189.03 258.4V248.4C189.033 248.236 189.068 248.075 189.134 247.925C189.2 247.775 189.295 247.639 189.414 247.525C189.533 247.412 189.673 247.323 189.827 247.264C189.981 247.204 190.145 247.176 190.31 247.18H193.212C193.545 247.175 193.866 247.3 194.105 247.528C194.345 247.757 194.484 248.07 194.492 248.4V260.09C194.463 261.217 193.986 262.287 193.165 263.067C192.343 263.846 191.245 264.271 190.109 264.25" fill="#A67EE5" class="stroke"/>
    <path d="M122.229 232.38H113.059V244.9H122.229V232.38Z" fill="#A67EE5" class="stroke"/>
    <path d="M232.342 232.38H223.171V244.9H232.342V232.38Z" fill="#A67EE5" class="stroke"/>
    <path d="M254.138 267.3V257.43H243.658C242.144 257.467 240.707 258.098 239.662 259.186C238.617 260.273 238.05 261.728 238.085 263.23V279.05H242.852C249.059 279.05 254.138 273.76 254.138 267.3Z" fill="#A67EE5" class="stroke"/>
    <path d="M74.182 251.73H53.2419C52.9746 251.73 52.7183 251.625 52.5293 251.437C52.3403 251.25 52.2342 250.995 52.2342 250.73V248.19C52.2342 247.925 52.3403 247.67 52.5293 247.483C52.7183 247.295 52.9746 247.19 53.2419 247.19H74.182C74.4493 247.19 74.7056 247.295 74.8946 247.483C75.0835 247.67 75.1897 247.925 75.1897 248.19V250.77C75.1897 251.035 75.0835 251.29 74.8946 251.477C74.7056 251.665 74.4493 251.77 74.182 251.77" fill="#A67EE5" class="stroke"/>
  </g>

  <path id="foot" d="M20.0077 279.19H279.512" class="stroke" />
</svg>
